<svg width="1739" height="315" viewBox="0 0 1739 315" fill="none" xmlns="http://www.w3.org/2000/svg">
<circle cx="157.5" cy="157.5" r="157.5" fill="#010101"/>
<path d="M122.652 110.832H123.238C130.562 90.5195 143.746 80.3633 162.789 80.3633C165.23 80.3633 167.232 80.5098 168.795 80.8027C170.357 80.998 171.432 81.1934 172.018 81.3887C173.482 81.877 174.215 83 174.215 84.7578V120.061C174.215 123.088 172.457 123.918 168.941 122.551C167.77 122.062 166.061 121.574 163.814 121.086C161.666 120.5 158.639 120.207 154.732 120.207C144.674 120.207 136.812 123.918 131.148 131.34C125.484 138.664 122.652 148.674 122.652 161.369V225.236C122.652 228.166 122.018 230.217 120.748 231.389C119.576 232.463 117.525 233 114.596 233H84.4199C81.4902 233 79.3906 232.463 78.1211 231.389C76.9492 230.217 76.3633 228.166 76.3633 225.236V102.482C76.3633 100.139 76.8516 98.332 77.8281 97.0625C79.8789 94.3281 82.3203 91.5449 85.1523 88.7129C88.082 85.8809 91.6465 82.8535 95.8457 79.6309C96.627 79.0449 97.4082 78.6543 98.1895 78.459C98.9707 78.2637 99.6543 78.166 100.24 78.166C101.607 78.166 102.975 78.6543 104.342 79.6309C112.447 85.9785 118.111 91.3984 121.334 95.8906C122.213 97.0625 122.652 98.4297 122.652 99.9922V110.832Z" fill="white"/>
<path d="M211.744 240.538L239.046 226.203V226.209C239.654 225.888 240.034 225.279 240.034 224.616V196.103L211.745 210.957L211.744 240.538Z" fill="url(#paint0_linear_90_15)"/>
<path d="M180 224.617C180 225.279 180.38 225.889 180.988 226.21L208.289 240.545V210.957L180.001 196.103L180 224.617Z" fill="url(#paint1_linear_90_15)"/>
<path d="M224.078 185.917L210.853 192.858C210.334 193.133 209.699 193.133 209.18 192.858L195.955 185.91L181.845 193.317L210.017 208.111L238.188 193.324L224.078 185.917Z" fill="url(#paint2_linear_90_15)"/>
<path d="M211.744 159.063V188.652L239.046 174.31C239.654 173.995 240.034 173.386 240.034 172.724V144.21L211.744 159.063Z" fill="url(#paint3_linear_90_15)"/>
<path d="M180.989 174.308L208.29 188.65V159.061L180.001 144.208V172.721C180.001 173.383 180.38 173.993 180.989 174.308Z" fill="url(#paint4_linear_90_15)"/>
<path d="M209.18 140.964L195.948 134.016L181.838 141.429L210.017 156.224L238.195 141.429L224.085 134.016L210.853 140.964C210.597 141.095 210.307 141.167 210.017 141.174C209.727 141.174 209.436 141.101 209.18 140.964Z" fill="url(#paint5_linear_90_15)"/>
<path d="M211.744 107.168V136.75L239.046 122.421C239.654 122.1 240.034 121.49 240.034 120.828V92.3153L211.744 107.168Z" fill="url(#paint6_linear_90_15)"/>
<path d="M180.989 122.421L208.29 136.75V107.168L180.001 92.315V120.828C180.001 121.49 180.38 122.1 180.989 122.421Z" fill="url(#paint7_linear_90_15)"/>
<path d="M238.196 89.5352L210.944 75.2261C210.37 74.9246 209.666 74.9246 209.092 75.2261L181.84 89.5352L210.019 104.329L238.196 89.5352Z" fill="url(#paint8_linear_90_15)"/>
<path d="M389.01 211V72.8182H443.527C453.963 72.8182 462.869 74.6849 470.246 78.4183C477.668 82.1068 483.313 87.3471 487.181 94.1392C491.094 100.886 493.051 108.826 493.051 117.957C493.051 127.133 491.072 135.027 487.114 141.639C483.155 148.206 477.42 153.244 469.908 156.753C462.442 160.261 453.4 162.016 442.785 162.016H406.283V138.536H438.062C443.639 138.536 448.272 137.771 451.961 136.241C455.649 134.712 458.393 132.418 460.192 129.359C462.037 126.301 462.959 122.5 462.959 117.957C462.959 113.369 462.037 109.5 460.192 106.352C458.393 103.203 455.627 100.819 451.893 99.1996C448.205 97.5353 443.549 96.7031 437.927 96.7031H418.225V211H389.01ZM463.634 148.116L497.977 211H465.725L432.124 148.116H463.634ZM542.71 212.957C536.098 212.957 530.205 211.81 525.033 209.516C519.86 207.177 515.767 203.736 512.753 199.192C509.784 194.604 508.3 188.892 508.3 182.055C508.3 176.297 509.357 171.462 511.471 167.548C513.585 163.635 516.464 160.486 520.107 158.102C523.751 155.718 527.889 153.919 532.522 152.705C537.2 151.49 542.103 150.635 547.231 150.141C553.258 149.511 558.116 148.926 561.805 148.386C565.493 147.802 568.17 146.947 569.834 145.822C571.498 144.698 572.33 143.034 572.33 140.83V140.425C572.33 136.152 570.981 132.845 568.282 130.506C565.628 128.167 561.85 126.998 556.947 126.998C551.774 126.998 547.658 128.145 544.599 130.439C541.541 132.688 539.517 135.522 538.527 138.94L511.943 136.781C513.293 130.484 515.946 125.041 519.905 120.453C523.863 115.82 528.969 112.267 535.221 109.793C541.518 107.274 548.805 106.014 557.082 106.014C562.839 106.014 568.349 106.689 573.612 108.038C578.92 109.388 583.621 111.479 587.714 114.313C591.852 117.147 595.113 120.79 597.497 125.244C599.881 129.652 601.073 134.937 601.073 141.099V211H573.815V196.629H573.005C571.341 199.867 569.114 202.723 566.325 205.197C563.536 207.626 560.185 209.538 556.272 210.933C552.359 212.282 547.838 212.957 542.71 212.957ZM550.942 193.12C555.17 193.12 558.903 192.288 562.142 190.624C565.381 188.914 567.922 186.62 569.766 183.741C571.611 180.863 572.533 177.602 572.533 173.958V162.96C571.633 163.545 570.396 164.085 568.822 164.58C567.292 165.029 565.561 165.457 563.626 165.862C561.692 166.221 559.758 166.559 557.824 166.874C555.89 167.143 554.135 167.391 552.561 167.616C549.188 168.111 546.241 168.898 543.722 169.977C541.203 171.057 539.247 172.519 537.852 174.363C536.458 176.162 535.761 178.411 535.761 181.11C535.761 185.023 537.178 188.015 540.011 190.084C542.89 192.108 546.534 193.12 550.942 193.12ZM689.832 166.874V107.364H718.575V211H690.979V192.175H689.9C687.56 198.248 683.67 203.128 678.227 206.817C672.829 210.505 666.239 212.349 658.458 212.349C651.531 212.349 645.436 210.775 640.173 207.626C634.91 204.478 630.794 200.002 627.826 194.2C624.902 188.397 623.417 181.447 623.373 173.351V107.364H652.115V168.223C652.16 174.34 653.802 179.176 657.041 182.729C660.279 186.283 664.62 188.06 670.063 188.06C673.526 188.06 676.765 187.272 679.779 185.698C682.792 184.079 685.221 181.695 687.066 178.546C688.955 175.397 689.877 171.507 689.832 166.874ZM741.566 211V107.364H768.959V125.648H770.174C772.333 119.576 775.931 114.786 780.969 111.277C786.007 107.768 792.035 106.014 799.052 106.014C806.159 106.014 812.209 107.791 817.202 111.344C822.194 114.853 825.523 119.621 827.187 125.648H828.267C830.381 119.711 834.204 114.965 839.737 111.412C845.315 107.813 851.904 106.014 859.506 106.014C869.177 106.014 877.026 109.095 883.054 115.258C889.126 121.375 892.162 130.057 892.162 141.302V211H863.487V146.969C863.487 141.212 861.958 136.894 858.899 134.015C855.84 131.136 852.017 129.697 847.429 129.697C842.211 129.697 838.14 131.361 835.216 134.69C832.293 137.973 830.831 142.314 830.831 147.712V211H802.965V146.362C802.965 141.279 801.503 137.231 798.579 134.217C795.701 131.204 791.9 129.697 787.177 129.697C783.983 129.697 781.104 130.506 778.54 132.126C776.021 133.7 774.02 135.927 772.535 138.805C771.051 141.639 770.309 144.968 770.309 148.791V211H741.566ZM1074.96 72.8182V211H1049.73L989.608 124.029H988.596V211H959.381V72.8182H985.02L1044.67 159.722H1045.88V72.8182H1074.96ZM1145.79 213.024C1135.13 213.024 1125.95 210.865 1118.26 206.547C1110.61 202.184 1104.72 196.021 1100.58 188.06C1096.44 180.053 1094.37 170.585 1094.37 159.654C1094.37 148.994 1096.44 139.638 1100.58 131.586C1104.72 123.534 1110.55 117.259 1118.06 112.761C1125.61 108.263 1134.48 106.014 1144.64 106.014C1151.48 106.014 1157.84 107.116 1163.74 109.32C1169.67 111.479 1174.85 114.741 1179.25 119.104C1183.71 123.467 1187.17 128.955 1189.64 135.567C1192.12 142.134 1193.36 149.826 1193.36 158.642V166.536H1105.84V148.724H1166.3C1166.3 144.585 1165.4 140.92 1163.6 137.726C1161.8 134.532 1159.3 132.036 1156.11 130.237C1152.96 128.392 1149.3 127.47 1145.11 127.47C1140.75 127.47 1136.88 128.482 1133.51 130.506C1130.18 132.486 1127.57 135.162 1125.68 138.536C1123.79 141.864 1122.83 145.575 1122.78 149.668V166.604C1122.78 171.732 1123.72 176.162 1125.61 179.896C1127.55 183.629 1130.27 186.508 1133.78 188.532C1137.29 190.556 1141.45 191.568 1146.26 191.568C1149.45 191.568 1152.38 191.118 1155.03 190.219C1157.69 189.319 1159.96 187.97 1161.85 186.17C1163.74 184.371 1165.18 182.167 1166.16 179.558L1192.75 181.312C1191.4 187.7 1188.63 193.277 1184.45 198.045C1180.31 202.768 1174.96 206.457 1168.39 209.111C1161.87 211.72 1154.33 213.024 1145.79 213.024ZM1267.24 107.364V128.955H1204.83V107.364H1267.24ZM1218.99 82.5341H1247.74V179.153C1247.74 181.807 1248.14 183.876 1248.95 185.361C1249.76 186.8 1250.89 187.812 1252.33 188.397C1253.81 188.982 1255.52 189.274 1257.45 189.274C1258.8 189.274 1260.15 189.162 1261.5 188.937C1262.85 188.667 1263.89 188.464 1264.61 188.33L1269.13 209.718C1267.69 210.168 1265.66 210.685 1263.05 211.27C1260.44 211.9 1257.27 212.282 1253.54 212.417C1246.61 212.687 1240.54 211.765 1235.32 209.651C1230.15 207.536 1226.12 204.253 1223.25 199.8C1220.37 195.347 1218.95 189.724 1218.99 182.932V82.5341ZM1306.4 211L1278.2 107.364H1307.28L1323.34 176.994H1324.28L1341.02 107.364H1369.56L1386.56 176.589H1387.44L1403.23 107.364H1432.24L1404.1 211H1373.67L1355.86 145.822H1354.58L1336.77 211H1306.4ZM1491.8 213.024C1481.32 213.024 1472.26 210.798 1464.61 206.344C1457.01 201.846 1451.14 195.594 1447 187.587C1442.86 179.536 1440.79 170.202 1440.79 159.587C1440.79 148.881 1442.86 139.525 1447 131.518C1451.14 123.467 1457.01 117.214 1464.61 112.761C1472.26 108.263 1481.32 106.014 1491.8 106.014C1502.28 106.014 1511.32 108.263 1518.92 112.761C1526.57 117.214 1532.46 123.467 1536.6 131.518C1540.74 139.525 1542.81 148.881 1542.81 159.587C1542.81 170.202 1540.74 179.536 1536.6 187.587C1532.46 195.594 1526.57 201.846 1518.92 206.344C1511.32 210.798 1502.28 213.024 1491.8 213.024ZM1491.93 190.759C1496.7 190.759 1500.68 189.409 1503.88 186.71C1507.07 183.966 1509.48 180.233 1511.1 175.51C1512.76 170.787 1513.59 165.412 1513.59 159.384C1513.59 153.357 1512.76 147.982 1511.1 143.259C1509.48 138.536 1507.07 134.802 1503.88 132.058C1500.68 129.314 1496.7 127.942 1491.93 127.942C1487.12 127.942 1483.07 129.314 1479.79 132.058C1476.55 134.802 1474.1 138.536 1472.44 143.259C1470.82 147.982 1470.01 153.357 1470.01 159.384C1470.01 165.412 1470.82 170.787 1472.44 175.51C1474.1 180.233 1476.55 183.966 1479.79 186.71C1483.07 189.409 1487.12 190.759 1491.93 190.759ZM1561.5 211V107.364H1589.36V125.446H1590.44C1592.33 119.014 1595.5 114.156 1599.96 110.872C1604.41 107.544 1609.54 105.879 1615.34 105.879C1616.78 105.879 1618.33 105.969 1620 106.149C1621.66 106.329 1623.12 106.576 1624.38 106.891V132.396C1623.03 131.991 1621.16 131.631 1618.78 131.316C1616.4 131.001 1614.22 130.844 1612.24 130.844C1608.01 130.844 1604.23 131.766 1600.9 133.61C1597.62 135.409 1595.01 137.928 1593.07 141.167C1591.19 144.406 1590.24 148.139 1590.24 152.367V211H1561.5ZM1665.29 181.178L1665.35 146.7H1669.54L1702.73 107.364H1735.73L1691.13 159.452H1684.31L1665.29 181.178ZM1639.24 211V72.8182H1667.98V211H1639.24ZM1704.01 211L1673.52 165.862L1692.68 145.553L1737.68 211H1704.01Z" fill="black"/>
<path d="M380.523 270V240.909H390.693C392.72 240.909 394.391 241.259 395.707 241.96C397.024 242.652 398.004 243.584 398.648 244.759C399.292 245.923 399.614 247.216 399.614 248.636C399.614 249.886 399.391 250.919 398.946 251.733C398.51 252.547 397.933 253.191 397.213 253.665C396.503 254.138 395.731 254.489 394.898 254.716V255C395.788 255.057 396.683 255.369 397.582 255.938C398.482 256.506 399.235 257.32 399.841 258.381C400.447 259.441 400.75 260.739 400.75 262.273C400.75 263.731 400.419 265.043 399.756 266.207C399.093 267.372 398.046 268.295 396.616 268.977C395.187 269.659 393.326 270 391.034 270H380.523ZM384.045 266.875H391.034C393.335 266.875 394.969 266.43 395.935 265.54C396.91 264.64 397.398 263.551 397.398 262.273C397.398 261.288 397.147 260.379 396.645 259.545C396.143 258.703 395.428 258.03 394.5 257.528C393.572 257.017 392.473 256.761 391.205 256.761H384.045V266.875ZM384.045 253.693H390.58C391.64 253.693 392.597 253.485 393.449 253.068C394.311 252.652 394.992 252.064 395.494 251.307C396.006 250.549 396.261 249.659 396.261 248.636C396.261 247.358 395.816 246.274 394.926 245.384C394.036 244.484 392.625 244.034 390.693 244.034H384.045V253.693ZM419.834 261.08V248.182H423.186V270H419.834V266.307H419.607C419.095 267.415 418.3 268.357 417.22 269.134C416.141 269.901 414.777 270.284 413.129 270.284C411.766 270.284 410.554 269.986 409.493 269.389C408.432 268.783 407.599 267.874 406.993 266.662C406.387 265.44 406.084 263.902 406.084 262.045V248.182H409.436V261.818C409.436 263.409 409.881 264.678 410.771 265.625C411.671 266.572 412.817 267.045 414.209 267.045C415.042 267.045 415.89 266.832 416.751 266.406C417.623 265.98 418.352 265.327 418.939 264.446C419.536 263.565 419.834 262.443 419.834 261.08ZM429.326 270V248.182H432.678V270H429.326ZM431.031 244.545C430.377 244.545 429.814 244.323 429.34 243.878C428.876 243.433 428.644 242.898 428.644 242.273C428.644 241.648 428.876 241.113 429.34 240.668C429.814 240.223 430.377 240 431.031 240C431.684 240 432.243 240.223 432.707 240.668C433.18 241.113 433.417 241.648 433.417 242.273C433.417 242.898 433.18 243.433 432.707 243.878C432.243 244.323 431.684 244.545 431.031 244.545ZM442.17 240.909V270H438.818V240.909H442.17ZM456.549 270.455C454.731 270.455 453.126 269.995 451.734 269.077C450.342 268.149 449.253 266.842 448.467 265.156C447.681 263.461 447.288 261.458 447.288 259.148C447.288 256.856 447.681 254.867 448.467 253.182C449.253 251.496 450.346 250.194 451.748 249.276C453.149 248.357 454.769 247.898 456.606 247.898C458.026 247.898 459.148 248.134 459.972 248.608C460.806 249.072 461.44 249.602 461.876 250.199C462.321 250.786 462.666 251.269 462.913 251.648H463.197V240.909H466.549V270H463.31V266.648H462.913C462.666 267.045 462.316 267.547 461.862 268.153C461.407 268.75 460.758 269.285 459.915 269.759C459.073 270.223 457.951 270.455 456.549 270.455ZM457.004 267.443C458.348 267.443 459.485 267.093 460.413 266.392C461.341 265.682 462.046 264.702 462.529 263.452C463.012 262.192 463.254 260.739 463.254 259.091C463.254 257.462 463.017 256.037 462.543 254.815C462.07 253.584 461.369 252.628 460.441 251.946C459.513 251.255 458.367 250.909 457.004 250.909C455.583 250.909 454.399 251.274 453.452 252.003C452.515 252.723 451.809 253.703 451.336 254.943C450.872 256.174 450.64 257.557 450.64 259.091C450.64 260.644 450.877 262.055 451.35 263.324C451.833 264.583 452.543 265.587 453.481 266.335C454.428 267.074 455.602 267.443 457.004 267.443ZM473.154 270V248.182H476.506V270H473.154ZM474.859 244.545C474.205 244.545 473.642 244.323 473.168 243.878C472.704 243.433 472.472 242.898 472.472 242.273C472.472 241.648 472.704 241.113 473.168 240.668C473.642 240.223 474.205 240 474.859 240C475.512 240 476.071 240.223 476.535 240.668C477.008 241.113 477.245 241.648 477.245 242.273C477.245 242.898 477.008 243.433 476.535 243.878C476.071 244.323 475.512 244.545 474.859 244.545ZM485.999 256.875V270H482.646V248.182H485.885V251.591H486.169C486.68 250.483 487.457 249.593 488.499 248.92C489.54 248.239 490.885 247.898 492.533 247.898C494.01 247.898 495.303 248.201 496.411 248.807C497.518 249.403 498.38 250.312 498.996 251.534C499.611 252.746 499.919 254.28 499.919 256.136V270H496.567V256.364C496.567 254.65 496.122 253.314 495.232 252.358C494.341 251.392 493.12 250.909 491.567 250.909C490.497 250.909 489.54 251.141 488.697 251.605C487.864 252.069 487.206 252.746 486.723 253.636C486.24 254.527 485.999 255.606 485.999 256.875ZM514.852 278.636C513.232 278.636 511.84 278.428 510.675 278.011C509.511 277.604 508.54 277.064 507.763 276.392C506.996 275.729 506.386 275.019 505.931 274.261L508.602 272.386C508.905 272.784 509.288 273.239 509.752 273.75C510.216 274.271 510.851 274.721 511.656 275.099C512.47 275.488 513.535 275.682 514.852 275.682C516.613 275.682 518.067 275.256 519.212 274.403C520.358 273.551 520.931 272.216 520.931 270.398V265.966H520.647C520.401 266.364 520.05 266.856 519.596 267.443C519.151 268.021 518.507 268.537 517.664 268.991C516.831 269.437 515.704 269.659 514.283 269.659C512.522 269.659 510.941 269.242 509.539 268.409C508.147 267.576 507.044 266.364 506.229 264.773C505.424 263.182 505.022 261.25 505.022 258.977C505.022 256.742 505.415 254.796 506.201 253.139C506.987 251.473 508.081 250.185 509.482 249.276C510.884 248.357 512.503 247.898 514.34 247.898C515.761 247.898 516.888 248.134 517.721 248.608C518.564 249.072 519.208 249.602 519.653 250.199C520.107 250.786 520.458 251.269 520.704 251.648H521.045V248.182H524.283V270.625C524.283 272.5 523.857 274.025 523.005 275.199C522.162 276.383 521.026 277.249 519.596 277.798C518.175 278.357 516.594 278.636 514.852 278.636ZM514.738 266.648C516.083 266.648 517.219 266.34 518.147 265.724C519.075 265.109 519.781 264.223 520.263 263.068C520.746 261.913 520.988 260.53 520.988 258.92C520.988 257.348 520.751 255.961 520.278 254.759C519.804 253.556 519.103 252.614 518.175 251.932C517.247 251.25 516.102 250.909 514.738 250.909C513.317 250.909 512.134 251.269 511.187 251.989C510.249 252.708 509.544 253.674 509.07 254.886C508.606 256.098 508.374 257.443 508.374 258.92C508.374 260.436 508.611 261.776 509.085 262.94C509.567 264.096 510.278 265.005 511.215 265.668C512.162 266.321 513.336 266.648 514.738 266.648ZM551.102 270H542.124V240.909H551.499C554.321 240.909 556.736 241.491 558.744 242.656C560.751 243.812 562.29 245.473 563.36 247.642C564.43 249.801 564.965 252.386 564.965 255.398C564.965 258.428 564.425 261.037 563.346 263.224C562.266 265.402 560.694 267.079 558.63 268.253C556.566 269.418 554.056 270 551.102 270ZM545.647 266.875H550.874C553.28 266.875 555.273 266.411 556.854 265.483C558.436 264.555 559.615 263.234 560.391 261.52C561.168 259.806 561.556 257.765 561.556 255.398C561.556 253.049 561.173 251.027 560.406 249.332C559.638 247.628 558.493 246.321 556.968 245.412C555.443 244.493 553.545 244.034 551.272 244.034H545.647V266.875ZM579.567 270.455C577.465 270.455 575.652 269.991 574.127 269.062C572.612 268.125 571.442 266.818 570.619 265.142C569.804 263.456 569.397 261.496 569.397 259.261C569.397 257.027 569.804 255.057 570.619 253.352C571.442 251.638 572.588 250.303 574.056 249.347C575.533 248.381 577.257 247.898 579.227 247.898C580.363 247.898 581.485 248.087 582.593 248.466C583.701 248.845 584.71 249.46 585.619 250.312C586.528 251.155 587.252 252.273 587.792 253.665C588.332 255.057 588.602 256.771 588.602 258.807V260.227H571.783V257.33H585.192C585.192 256.098 584.946 255 584.454 254.034C583.971 253.068 583.28 252.306 582.38 251.747C581.49 251.188 580.439 250.909 579.227 250.909C577.891 250.909 576.736 251.241 575.761 251.903C574.795 252.557 574.051 253.409 573.531 254.46C573.01 255.511 572.749 256.638 572.749 257.841V259.773C572.749 261.42 573.033 262.817 573.602 263.963C574.179 265.099 574.979 265.966 576.002 266.562C577.025 267.15 578.213 267.443 579.567 267.443C580.448 267.443 581.244 267.32 581.954 267.074C582.674 266.818 583.294 266.439 583.815 265.938C584.335 265.426 584.738 264.792 585.022 264.034L588.261 264.943C587.92 266.042 587.347 267.008 586.542 267.841C585.737 268.665 584.743 269.309 583.559 269.773C582.375 270.227 581.045 270.455 579.567 270.455ZM594.156 270V240.909H611.599V244.034H597.678V253.864H610.292V256.989H597.678V270H594.156ZM617.178 270V248.182H620.53V270H617.178ZM618.882 244.545C618.229 244.545 617.665 244.323 617.192 243.878C616.728 243.433 616.496 242.898 616.496 242.273C616.496 241.648 616.728 241.113 617.192 240.668C617.665 240.223 618.229 240 618.882 240C619.536 240 620.094 240.223 620.558 240.668C621.032 241.113 621.268 241.648 621.268 242.273C621.268 242.898 621.032 243.433 620.558 243.878C620.094 244.323 619.536 244.545 618.882 244.545Z" fill="black"/>
<defs>
<linearGradient id="paint0_linear_90_15" x1="210.018" y1="75" x2="210" y2="241" gradientUnits="userSpaceOnUse">
<stop stop-color="#2563EB"/>
<stop offset="1" stop-color="#1A365D"/>
</linearGradient>
<linearGradient id="paint1_linear_90_15" x1="210.018" y1="75" x2="210" y2="241" gradientUnits="userSpaceOnUse">
<stop stop-color="#2563EB"/>
<stop offset="1" stop-color="#1A365D"/>
</linearGradient>
<linearGradient id="paint2_linear_90_15" x1="210.018" y1="75" x2="210" y2="241" gradientUnits="userSpaceOnUse">
<stop stop-color="#2563EB"/>
<stop offset="1" stop-color="#1A365D"/>
</linearGradient>
<linearGradient id="paint3_linear_90_15" x1="210.018" y1="75" x2="210" y2="241" gradientUnits="userSpaceOnUse">
<stop stop-color="#2563EB"/>
<stop offset="1" stop-color="#1A365D"/>
</linearGradient>
<linearGradient id="paint4_linear_90_15" x1="210.018" y1="75" x2="210" y2="241" gradientUnits="userSpaceOnUse">
<stop stop-color="#2563EB"/>
<stop offset="1" stop-color="#1A365D"/>
</linearGradient>
<linearGradient id="paint5_linear_90_15" x1="210.018" y1="75" x2="210" y2="241" gradientUnits="userSpaceOnUse">
<stop stop-color="#2563EB"/>
<stop offset="1" stop-color="#1A365D"/>
</linearGradient>
<linearGradient id="paint6_linear_90_15" x1="210.018" y1="75" x2="210" y2="241" gradientUnits="userSpaceOnUse">
<stop stop-color="#2563EB"/>
<stop offset="1" stop-color="#1A365D"/>
</linearGradient>
<linearGradient id="paint7_linear_90_15" x1="210.018" y1="75" x2="210" y2="241" gradientUnits="userSpaceOnUse">
<stop stop-color="#2563EB"/>
<stop offset="1" stop-color="#1A365D"/>
</linearGradient>
<linearGradient id="paint8_linear_90_15" x1="210.018" y1="75" x2="210" y2="241" gradientUnits="userSpaceOnUse">
<stop stop-color="#2563EB"/>
<stop offset="1" stop-color="#1A365D"/>
</linearGradient>
</defs>
</svg>
