<svg width="315" height="315" viewBox="0 0 315 315" fill="none" xmlns="http://www.w3.org/2000/svg">
<circle cx="157.5" cy="157.5" r="157.5" fill="url(#paint0_linear_82_29)"/>
<path d="M122.652 110.832H123.238C130.562 90.5195 143.746 80.3633 162.789 80.3633C165.23 80.3633 167.232 80.5098 168.795 80.8027C170.357 80.998 171.432 81.1934 172.018 81.3887C173.482 81.877 174.215 83 174.215 84.7578V120.061C174.215 123.088 172.457 123.918 168.941 122.551C167.77 122.062 166.061 121.574 163.814 121.086C161.666 120.5 158.639 120.207 154.732 120.207C144.674 120.207 136.812 123.918 131.148 131.34C125.484 138.664 122.652 148.674 122.652 161.369V225.236C122.652 228.166 122.018 230.217 120.748 231.389C119.576 232.463 117.525 233 114.596 233H84.4199C81.4902 233 79.3906 232.463 78.1211 231.389C76.9492 230.217 76.3633 228.166 76.3633 225.236V102.482C76.3633 100.139 76.8516 98.332 77.8281 97.0625C79.8789 94.3281 82.3203 91.5449 85.1523 88.7129C88.082 85.8809 91.6465 82.8535 95.8457 79.6309C96.627 79.0449 97.4082 78.6543 98.1895 78.459C98.9707 78.2637 99.6543 78.166 100.24 78.166C101.607 78.166 102.975 78.6543 104.342 79.6309C112.447 85.9785 118.111 91.3984 121.334 95.8906C122.213 97.0625 122.652 98.4297 122.652 99.9922V110.832Z" fill="white"/>
<path d="M211.745 240.538L239.046 226.203V226.209C239.654 225.888 240.034 225.279 240.034 224.617V196.103L211.746 210.957L211.745 240.538Z" fill="white"/>
<path d="M180 224.617C180 225.279 180.38 225.889 180.988 226.21L208.289 240.545V210.957L180.001 196.103L180 224.617Z" fill="white"/>
<path d="M224.078 185.917L210.853 192.858C210.334 193.133 209.699 193.133 209.18 192.858L195.955 185.91L181.845 193.317L210.017 208.111L238.188 193.324L224.078 185.917Z" fill="white"/>
<path d="M211.745 159.063V188.652L239.046 174.31C239.654 173.995 240.034 173.386 240.034 172.724V144.21L226.297 151.421L211.745 159.063Z" fill="white"/>
<path d="M180.989 174.308L208.29 188.65V159.061L180.001 144.208V172.721C180.001 173.383 180.38 173.993 180.989 174.308Z" fill="white"/>
<path d="M209.18 140.964L195.948 134.016L181.838 141.429L210.017 156.223L238.195 141.429L224.085 134.016L210.853 140.964C210.597 141.095 210.307 141.167 210.017 141.174C209.727 141.174 209.436 141.101 209.18 140.964Z" fill="white"/>
<path d="M211.745 107.168V136.75L239.046 122.421C239.654 122.1 240.034 121.49 240.034 120.828V92.3153L211.745 107.168Z" fill="white"/>
<path d="M180.989 122.421L208.29 136.75V107.168L180.001 92.315V120.828C180.001 121.49 180.38 122.1 180.989 122.421Z" fill="white"/>
<path d="M238.196 89.5352L210.944 75.2261C210.37 74.9246 209.666 74.9246 209.092 75.2261L181.84 89.5352L210.019 104.329L238.196 89.5352Z" fill="white"/>
<defs>
<linearGradient id="paint0_linear_82_29" x1="315" y1="158" x2="-1.15701e-06" y2="158" gradientUnits="userSpaceOnUse">
<stop stop-color="#2563EB"/>
<stop offset="1" stop-color="#1A365D"/>
</linearGradient>
</defs>
</svg>
