<svg width="1095" height="315" viewBox="0 0 1095 315" fill="none" xmlns="http://www.w3.org/2000/svg">
<circle cx="157.5" cy="157.5" r="157.5" fill="#010101"/>
<path d="M122.652 110.832H123.238C130.562 90.5195 143.746 80.3633 162.789 80.3633C165.23 80.3633 167.232 80.5098 168.795 80.8027C170.357 80.998 171.432 81.1934 172.018 81.3887C173.482 81.877 174.215 83 174.215 84.7578V120.061C174.215 123.088 172.457 123.918 168.941 122.551C167.77 122.062 166.061 121.574 163.814 121.086C161.666 120.5 158.639 120.207 154.732 120.207C144.674 120.207 136.812 123.918 131.148 131.34C125.484 138.664 122.652 148.674 122.652 161.369V225.236C122.652 228.166 122.018 230.217 120.748 231.389C119.576 232.463 117.525 233 114.596 233H84.4199C81.4902 233 79.3906 232.463 78.1211 231.389C76.9492 230.217 76.3633 228.166 76.3633 225.236V102.482C76.3633 100.139 76.8516 98.332 77.8281 97.0625C79.8789 94.3281 82.3203 91.5449 85.1523 88.7129C88.082 85.8809 91.6465 82.8535 95.8457 79.6309C96.627 79.0449 97.4082 78.6543 98.1895 78.459C98.9707 78.2637 99.6543 78.166 100.24 78.166C101.607 78.166 102.975 78.6543 104.342 79.6309C112.447 85.9785 118.111 91.3984 121.334 95.8906C122.213 97.0625 122.652 98.4297 122.652 99.9922V110.832Z" fill="white"/>
<path d="M211.744 240.538L239.046 226.203V226.209C239.654 225.888 240.034 225.279 240.034 224.616V196.103L211.745 210.957L211.744 240.538Z" fill="url(#paint0_linear_102_2)"/>
<path d="M180 224.617C180 225.279 180.38 225.889 180.988 226.21L208.289 240.545V210.957L180.001 196.103L180 224.617Z" fill="url(#paint1_linear_102_2)"/>
<path d="M224.078 185.917L210.853 192.858C210.334 193.133 209.699 193.133 209.18 192.858L195.955 185.91L181.845 193.317L210.017 208.111L238.188 193.324L224.078 185.917Z" fill="url(#paint2_linear_102_2)"/>
<path d="M211.744 159.063V188.652L239.046 174.31C239.654 173.995 240.034 173.386 240.034 172.724V144.21L211.744 159.063Z" fill="url(#paint3_linear_102_2)"/>
<path d="M180.989 174.308L208.29 188.65V159.061L180.001 144.208V172.721C180.001 173.383 180.38 173.993 180.989 174.308Z" fill="url(#paint4_linear_102_2)"/>
<path d="M209.18 140.964L195.948 134.016L181.838 141.429L210.017 156.224L238.195 141.429L224.085 134.016L210.853 140.964C210.597 141.095 210.307 141.167 210.017 141.174C209.727 141.174 209.436 141.102 209.18 140.964Z" fill="url(#paint5_linear_102_2)"/>
<path d="M211.744 107.168V136.75L239.046 122.421C239.654 122.1 240.034 121.49 240.034 120.828V92.3153L211.744 107.168Z" fill="url(#paint6_linear_102_2)"/>
<path d="M180.989 122.421L208.29 136.75V107.168L180.001 92.315V120.828C180.001 121.49 180.38 122.1 180.989 122.421Z" fill="url(#paint7_linear_102_2)"/>
<path d="M238.196 89.5352L210.944 75.2261C210.37 74.9246 209.666 74.9246 209.092 75.2261L181.84 89.5352L210.019 104.329L238.196 89.5352Z" fill="url(#paint8_linear_102_2)"/>
<path d="M384.79 75H415.76C426.527 75 434.38 77.5333 439.32 82.6C444.26 87.54 446.73 95.2033 446.73 105.59V113.76C446.73 127.567 442.17 136.307 433.05 139.98V140.36C438.117 141.88 441.663 144.983 443.69 149.67C445.843 154.357 446.92 160.627 446.92 168.48V191.85C446.92 195.65 447.047 198.753 447.3 201.16C447.553 203.44 448.187 205.72 449.2 208H427.92C427.16 205.847 426.653 203.82 426.4 201.92C426.147 200.02 426.02 196.6 426.02 191.66V167.34C426.02 161.26 425.007 157.017 422.98 154.61C421.08 152.203 417.723 151 412.91 151H405.69V208H384.79V75ZM413.29 132C417.47 132 420.573 130.923 422.6 128.77C424.753 126.617 425.83 123.007 425.83 117.94V107.68C425.83 102.867 424.943 99.3833 423.17 97.23C421.523 95.0767 418.863 94 415.19 94H405.69V132H413.29ZM461.421 75H487.641L507.971 154.61H508.351V75H526.971V208H505.501L480.421 110.91H480.041V208H461.421V75ZM572.935 75H593.835V189H628.225V208H572.935V75ZM655.139 75H683.449L705.109 208H684.209L680.409 181.59V181.97H656.659L652.859 208H633.479L655.139 75ZM677.939 163.92L668.629 98.18H668.249L659.129 163.92H677.939ZM715.249 75H746.789C757.556 75 765.409 77.5333 770.349 82.6C775.289 87.54 777.759 95.2033 777.759 105.59V110.91C777.759 117.75 776.619 123.323 774.339 127.63C772.186 131.937 768.829 135.04 764.269 136.94V137.32C774.656 140.867 779.849 150.113 779.849 165.06V176.46C779.849 186.72 777.126 194.573 771.679 200.02C766.359 205.34 758.506 208 748.119 208H715.249V75ZM744.319 129.15C748.499 129.15 751.602 128.073 753.629 125.92C755.782 123.767 756.859 120.157 756.859 115.09V107.68C756.859 102.867 755.972 99.3833 754.199 97.23C752.552 95.0767 749.892 94 746.219 94H736.149V129.15H744.319ZM748.119 189C751.792 189 754.516 188.05 756.289 186.15C758.062 184.123 758.949 180.703 758.949 175.89V164.3C758.949 158.22 757.872 154.04 755.719 151.76C753.692 149.353 750.272 148.15 745.459 148.15H736.149V189H748.119ZM819.235 209.9C809.102 209.9 801.439 207.05 796.245 201.35C791.052 195.523 788.455 187.227 788.455 176.46V168.86H808.215V177.98C808.215 186.593 811.825 190.9 819.045 190.9C822.592 190.9 825.252 189.887 827.025 187.86C828.925 185.707 829.875 182.287 829.875 177.6C829.875 172.027 828.609 167.15 826.075 162.97C823.542 158.663 818.855 153.533 812.015 147.58C803.402 139.98 797.385 133.14 793.965 127.06C790.545 120.853 788.835 113.887 788.835 106.16C788.835 95.6467 791.495 87.54 796.815 81.84C802.135 76.0133 809.862 73.1 819.995 73.1C830.002 73.1 837.539 76.0133 842.605 81.84C847.799 87.54 850.395 95.7733 850.395 106.54V112.05H830.635V105.21C830.635 100.65 829.749 97.3567 827.975 95.33C826.202 93.1767 823.605 92.1 820.185 92.1C813.219 92.1 809.735 96.3433 809.735 104.83C809.735 109.643 811.002 114.14 813.535 118.32C816.195 122.5 820.945 127.567 827.785 133.52C836.525 141.12 842.542 148.023 845.835 154.23C849.129 160.437 850.775 167.72 850.775 176.08C850.775 186.973 848.052 195.333 842.605 201.16C837.285 206.987 829.495 209.9 819.235 209.9Z" fill="black"/>
<path d="M384.13 267V235.5H387.46V267H384.13ZM409.094 243.15C411.014 243.15 412.694 243.525 414.134 244.275C415.604 244.995 416.744 246.105 417.554 247.605C418.394 249.105 418.814 250.995 418.814 253.275V267H415.619V253.59C415.619 251.1 414.989 249.225 413.729 247.965C412.499 246.675 410.759 246.03 408.509 246.03C406.829 246.03 405.359 246.375 404.099 247.065C402.869 247.725 401.909 248.7 401.219 249.99C400.559 251.25 400.229 252.78 400.229 254.58V267H397.034V243.375H400.094V249.855L399.599 248.64C400.349 246.93 401.549 245.595 403.199 244.635C404.849 243.645 406.814 243.15 409.094 243.15ZM439.504 243.15C441.424 243.15 443.104 243.525 444.544 244.275C446.014 244.995 447.154 246.105 447.964 247.605C448.804 249.105 449.224 250.995 449.224 253.275V267H446.029V253.59C446.029 251.1 445.399 249.225 444.139 247.965C442.909 246.675 441.169 246.03 438.919 246.03C437.239 246.03 435.769 246.375 434.509 247.065C433.279 247.725 432.319 248.7 431.629 249.99C430.969 251.25 430.639 252.78 430.639 254.58V267H427.444V243.375H430.504V249.855L430.009 248.64C430.759 246.93 431.959 245.595 433.609 244.635C435.259 243.645 437.224 243.15 439.504 243.15ZM467.484 267.225C465.204 267.225 463.149 266.715 461.319 265.695C459.519 264.645 458.094 263.22 457.044 261.42C455.994 259.59 455.469 257.505 455.469 255.165C455.469 252.795 455.994 250.71 457.044 248.91C458.094 247.11 459.519 245.7 461.319 244.68C463.119 243.66 465.174 243.15 467.484 243.15C469.824 243.15 471.894 243.66 473.694 244.68C475.524 245.7 476.949 247.11 477.969 248.91C479.019 250.71 479.544 252.795 479.544 255.165C479.544 257.505 479.019 259.59 477.969 261.42C476.949 263.22 475.524 264.645 473.694 265.695C471.864 266.715 469.794 267.225 467.484 267.225ZM467.484 264.39C469.194 264.39 470.709 264.015 472.029 263.265C473.349 262.485 474.384 261.405 475.134 260.025C475.914 258.615 476.304 256.995 476.304 255.165C476.304 253.305 475.914 251.685 475.134 250.305C474.384 248.925 473.349 247.86 472.029 247.11C470.709 246.33 469.209 245.94 467.529 245.94C465.849 245.94 464.349 246.33 463.029 247.11C461.709 247.86 460.659 248.925 459.879 250.305C459.099 251.685 458.709 253.305 458.709 255.165C458.709 256.995 459.099 258.615 459.879 260.025C460.659 261.405 461.709 262.485 463.029 263.265C464.349 264.015 465.834 264.39 467.484 264.39ZM491.483 267L480.998 243.375H484.328L493.958 265.29H492.383L502.148 243.375H505.298L494.768 267H491.483ZM523.9 267V261.78L523.765 260.925V252.195C523.765 250.185 523.195 248.64 522.055 247.56C520.945 246.48 519.28 245.94 517.06 245.94C515.53 245.94 514.075 246.195 512.695 246.705C511.315 247.215 510.145 247.89 509.185 248.73L507.745 246.345C508.945 245.325 510.385 244.545 512.065 244.005C513.745 243.435 515.515 243.15 517.375 243.15C520.435 243.15 522.79 243.915 524.44 245.445C526.12 246.945 526.96 249.24 526.96 252.33V267H523.9ZM515.755 267.225C513.985 267.225 512.44 266.94 511.12 266.37C509.83 265.77 508.84 264.96 508.15 263.94C507.46 262.89 507.115 261.69 507.115 260.34C507.115 259.11 507.4 258 507.97 257.01C508.57 255.99 509.53 255.18 510.85 254.58C512.2 253.95 514 253.635 516.25 253.635H524.395V256.02H516.34C514.06 256.02 512.47 256.425 511.57 257.235C510.7 258.045 510.265 259.05 510.265 260.25C510.265 261.6 510.79 262.68 511.84 263.49C512.89 264.3 514.36 264.705 516.25 264.705C518.05 264.705 519.595 264.3 520.885 263.49C522.205 262.65 523.165 261.45 523.765 259.89L524.485 262.095C523.885 263.655 522.835 264.9 521.335 265.83C519.865 266.76 518.005 267.225 515.755 267.225ZM543.108 267.225C540.888 267.225 539.178 266.625 537.978 265.425C536.778 264.225 536.178 262.53 536.178 260.34V238.155H539.373V260.16C539.373 261.54 539.718 262.605 540.408 263.355C541.128 264.105 542.148 264.48 543.468 264.48C544.878 264.48 546.048 264.075 546.978 263.265L548.103 265.56C547.473 266.13 546.708 266.55 545.808 266.82C544.938 267.09 544.038 267.225 543.108 267.225ZM531.948 246.03V243.375H546.573V246.03H531.948ZM553.919 267V243.375H557.114V267H553.919ZM555.539 238.155C554.879 238.155 554.324 237.93 553.874 237.48C553.424 237.03 553.199 236.49 553.199 235.86C553.199 235.23 553.424 234.705 553.874 234.285C554.324 233.835 554.879 233.61 555.539 233.61C556.199 233.61 556.754 233.82 557.204 234.24C557.654 234.66 557.879 235.185 557.879 235.815C557.879 236.475 557.654 237.03 557.204 237.48C556.784 237.93 556.229 238.155 555.539 238.155ZM572.079 267L561.594 243.375H564.924L574.554 265.29H572.979L582.744 243.375H585.894L575.364 267H572.079ZM599.769 267.225C597.309 267.225 595.149 266.715 593.289 265.695C591.429 264.645 589.974 263.22 588.924 261.42C587.874 259.59 587.349 257.505 587.349 255.165C587.349 252.825 587.844 250.755 588.834 248.955C589.854 247.155 591.234 245.745 592.974 244.725C594.744 243.675 596.724 243.15 598.914 243.15C601.134 243.15 603.099 243.66 604.809 244.68C606.549 245.67 607.914 247.08 608.904 248.91C609.894 250.71 610.389 252.795 610.389 255.165C610.389 255.315 610.374 255.48 610.344 255.66C610.344 255.81 610.344 255.975 610.344 256.155H589.779V253.77H608.634L607.374 254.715C607.374 253.005 606.999 251.49 606.249 250.17C605.529 248.82 604.539 247.77 603.279 247.02C602.019 246.27 600.564 245.895 598.914 245.895C597.294 245.895 595.839 246.27 594.549 247.02C593.259 247.77 592.254 248.82 591.534 250.17C590.814 251.52 590.454 253.065 590.454 254.805V255.3C590.454 257.1 590.844 258.69 591.624 260.07C592.434 261.42 593.544 262.485 594.954 263.265C596.394 264.015 598.029 264.39 599.859 264.39C601.299 264.39 602.634 264.135 603.864 263.625C605.124 263.115 606.204 262.335 607.104 261.285L608.904 263.355C607.854 264.615 606.534 265.575 604.944 266.235C603.384 266.895 601.659 267.225 599.769 267.225ZM629.345 267V235.5H642.935C646.445 235.5 649.16 236.205 651.08 237.615C653.03 239.025 654.005 241.02 654.005 243.6C654.005 245.31 653.6 246.75 652.79 247.92C652.01 249.09 650.93 249.975 649.55 250.575C648.2 251.175 646.715 251.475 645.095 251.475L645.86 250.395C647.87 250.395 649.595 250.71 651.035 251.34C652.505 251.94 653.645 252.855 654.455 254.085C655.265 255.285 655.67 256.785 655.67 258.585C655.67 261.255 654.68 263.325 652.7 264.795C650.75 266.265 647.795 267 643.835 267H629.345ZM632.675 264.255H643.79C646.55 264.255 648.665 263.79 650.135 262.86C651.605 261.9 652.34 260.385 652.34 258.315C652.34 256.275 651.605 254.79 650.135 253.86C648.665 252.9 646.55 252.42 643.79 252.42H632.315V249.675H642.71C645.23 249.675 647.18 249.195 648.56 248.235C649.97 247.275 650.675 245.85 650.675 243.96C650.675 242.04 649.97 240.615 648.56 239.685C647.18 238.725 645.23 238.245 642.71 238.245H632.675V264.255ZM662.596 267V233.61H665.791V267H662.596ZM684.311 267.225C682.031 267.225 679.976 266.715 678.146 265.695C676.346 264.645 674.921 263.22 673.871 261.42C672.821 259.59 672.296 257.505 672.296 255.165C672.296 252.795 672.821 250.71 673.871 248.91C674.921 247.11 676.346 245.7 678.146 244.68C679.946 243.66 682.001 243.15 684.311 243.15C686.651 243.15 688.721 243.66 690.521 244.68C692.351 245.7 693.776 247.11 694.796 248.91C695.846 250.71 696.371 252.795 696.371 255.165C696.371 257.505 695.846 259.59 694.796 261.42C693.776 263.22 692.351 264.645 690.521 265.695C688.691 266.715 686.621 267.225 684.311 267.225ZM684.311 264.39C686.021 264.39 687.536 264.015 688.856 263.265C690.176 262.485 691.211 261.405 691.961 260.025C692.741 258.615 693.131 256.995 693.131 255.165C693.131 253.305 692.741 251.685 691.961 250.305C691.211 248.925 690.176 247.86 688.856 247.11C687.536 246.33 686.036 245.94 684.356 245.94C682.676 245.94 681.176 246.33 679.856 247.11C678.536 247.86 677.486 248.925 676.706 250.305C675.926 251.685 675.536 253.305 675.536 255.165C675.536 256.995 675.926 258.615 676.706 260.025C677.486 261.405 678.536 262.485 679.856 263.265C681.176 264.015 682.661 264.39 684.311 264.39ZM712.703 267.225C710.363 267.225 708.263 266.715 706.403 265.695C704.573 264.645 703.133 263.22 702.083 261.42C701.033 259.59 700.508 257.505 700.508 255.165C700.508 252.795 701.033 250.71 702.083 248.91C703.133 247.11 704.573 245.7 706.403 244.68C708.263 243.66 710.363 243.15 712.703 243.15C714.713 243.15 716.528 243.54 718.148 244.32C719.768 245.1 721.043 246.27 721.973 247.83L719.588 249.45C718.778 248.25 717.773 247.365 716.573 246.795C715.373 246.225 714.068 245.94 712.658 245.94C710.978 245.94 709.463 246.33 708.113 247.11C706.763 247.86 705.698 248.925 704.918 250.305C704.138 251.685 703.748 253.305 703.748 255.165C703.748 257.025 704.138 258.645 704.918 260.025C705.698 261.405 706.763 262.485 708.113 263.265C709.463 264.015 710.978 264.39 712.658 264.39C714.068 264.39 715.373 264.105 716.573 263.535C717.773 262.965 718.778 262.095 719.588 260.925L721.973 262.545C721.043 264.075 719.768 265.245 718.148 266.055C716.528 266.835 714.713 267.225 712.703 267.225ZM730.418 260.88L730.508 256.785L745.223 243.375H749.138L738.743 253.32L736.943 254.85L730.418 260.88ZM727.898 267V233.61H731.093V267H727.898ZM746.213 267L736.358 254.715L738.428 252.24L750.128 267H746.213ZM763.812 267.225C761.472 267.225 759.372 266.715 757.512 265.695C755.682 264.645 754.242 263.22 753.192 261.42C752.142 259.59 751.617 257.505 751.617 255.165C751.617 252.795 752.142 250.71 753.192 248.91C754.242 247.11 755.682 245.7 757.512 244.68C759.372 243.66 761.472 243.15 763.812 243.15C765.822 243.15 767.637 243.54 769.257 244.32C770.877 245.1 772.152 246.27 773.082 247.83L770.697 249.45C769.887 248.25 768.882 247.365 767.682 246.795C766.482 246.225 765.177 245.94 763.767 245.94C762.087 245.94 760.572 246.33 759.222 247.11C757.872 247.86 756.807 248.925 756.027 250.305C755.247 251.685 754.857 253.305 754.857 255.165C754.857 257.025 755.247 258.645 756.027 260.025C756.807 261.405 757.872 262.485 759.222 263.265C760.572 264.015 762.087 264.39 763.767 264.39C765.177 264.39 766.482 264.105 767.682 263.535C768.882 262.965 769.887 262.095 770.697 260.925L773.082 262.545C772.152 264.075 770.877 265.245 769.257 266.055C767.637 266.835 765.822 267.225 763.812 267.225ZM791.067 243.15C792.987 243.15 794.667 243.525 796.107 244.275C797.577 244.995 798.717 246.105 799.527 247.605C800.367 249.105 800.787 250.995 800.787 253.275V267H797.592V253.59C797.592 251.1 796.962 249.225 795.702 247.965C794.472 246.675 792.732 246.03 790.482 246.03C788.802 246.03 787.332 246.375 786.072 247.065C784.842 247.725 783.882 248.7 783.192 249.99C782.532 251.25 782.202 252.78 782.202 254.58V267H779.007V233.61H782.202V249.855L781.572 248.64C782.322 246.93 783.522 245.595 785.172 244.635C786.822 243.645 788.787 243.15 791.067 243.15ZM824.222 267V261.78L824.087 260.925V252.195C824.087 250.185 823.517 248.64 822.377 247.56C821.267 246.48 819.602 245.94 817.382 245.94C815.852 245.94 814.397 246.195 813.017 246.705C811.637 247.215 810.467 247.89 809.507 248.73L808.067 246.345C809.267 245.325 810.707 244.545 812.387 244.005C814.067 243.435 815.837 243.15 817.697 243.15C820.757 243.15 823.112 243.915 824.762 245.445C826.442 246.945 827.282 249.24 827.282 252.33V267H824.222ZM816.077 267.225C814.307 267.225 812.762 266.94 811.442 266.37C810.152 265.77 809.162 264.96 808.472 263.94C807.782 262.89 807.437 261.69 807.437 260.34C807.437 259.11 807.722 258 808.292 257.01C808.892 255.99 809.852 255.18 811.172 254.58C812.522 253.95 814.322 253.635 816.572 253.635H824.717V256.02H816.662C814.382 256.02 812.792 256.425 811.892 257.235C811.022 258.045 810.587 259.05 810.587 260.25C810.587 261.6 811.112 262.68 812.162 263.49C813.212 264.3 814.682 264.705 816.572 264.705C818.372 264.705 819.917 264.3 821.207 263.49C822.527 262.65 823.487 261.45 824.087 259.89L824.807 262.095C824.207 263.655 823.157 264.9 821.657 265.83C820.187 266.76 818.327 267.225 816.077 267.225ZM835.96 267V243.375H839.155V267H835.96ZM837.58 238.155C836.92 238.155 836.365 237.93 835.915 237.48C835.465 237.03 835.24 236.49 835.24 235.86C835.24 235.23 835.465 234.705 835.915 234.285C836.365 233.835 836.92 233.61 837.58 233.61C838.24 233.61 838.795 233.82 839.245 234.24C839.695 234.66 839.92 235.185 839.92 235.815C839.92 236.475 839.695 237.03 839.245 237.48C838.825 237.93 838.27 238.155 837.58 238.155ZM860.105 243.15C862.025 243.15 863.705 243.525 865.145 244.275C866.615 244.995 867.755 246.105 868.565 247.605C869.405 249.105 869.825 250.995 869.825 253.275V267H866.63V253.59C866.63 251.1 866 249.225 864.74 247.965C863.51 246.675 861.77 246.03 859.52 246.03C857.84 246.03 856.37 246.375 855.11 247.065C853.88 247.725 852.92 248.7 852.23 249.99C851.57 251.25 851.24 252.78 851.24 254.58V267H848.045V243.375H851.105V249.855L850.61 248.64C851.36 246.93 852.56 245.595 854.21 244.635C855.86 243.645 857.825 243.15 860.105 243.15ZM899.592 267.27C897.252 267.27 895.002 266.895 892.842 266.145C890.712 265.365 889.062 264.375 887.892 263.175L889.197 260.61C890.307 261.69 891.792 262.605 893.652 263.355C895.542 264.075 897.522 264.435 899.592 264.435C901.572 264.435 903.177 264.195 904.407 263.715C905.667 263.205 906.582 262.53 907.152 261.69C907.752 260.85 908.052 259.92 908.052 258.9C908.052 257.67 907.692 256.68 906.972 255.93C906.282 255.18 905.367 254.595 904.227 254.175C903.087 253.725 901.827 253.335 900.447 253.005C899.067 252.675 897.687 252.33 896.307 251.97C894.927 251.58 893.652 251.07 892.482 250.44C891.342 249.81 890.412 248.985 889.692 247.965C889.002 246.915 888.657 245.55 888.657 243.87C888.657 242.31 889.062 240.885 889.872 239.595C890.712 238.275 891.987 237.225 893.697 236.445C895.407 235.635 897.597 235.23 900.267 235.23C902.037 235.23 903.792 235.485 905.532 235.995C907.272 236.475 908.772 237.15 910.032 238.02L908.907 240.675C907.557 239.775 906.117 239.115 904.587 238.695C903.087 238.275 901.632 238.065 900.222 238.065C898.332 238.065 896.772 238.32 895.542 238.83C894.312 239.34 893.397 240.03 892.797 240.9C892.227 241.74 891.942 242.7 891.942 243.78C891.942 245.01 892.287 246 892.977 246.75C893.697 247.5 894.627 248.085 895.767 248.505C896.937 248.925 898.212 249.3 899.592 249.63C900.972 249.96 902.337 250.32 903.687 250.71C905.067 251.1 906.327 251.61 907.467 252.24C908.637 252.84 909.567 253.65 910.257 254.67C910.977 255.69 911.337 257.025 911.337 258.675C911.337 260.205 910.917 261.63 910.077 262.95C909.237 264.24 907.947 265.29 906.207 266.1C904.497 266.88 902.292 267.27 899.592 267.27ZM927.548 267.225C925.268 267.225 923.213 266.715 921.383 265.695C919.583 264.645 918.158 263.22 917.108 261.42C916.058 259.59 915.533 257.505 915.533 255.165C915.533 252.795 916.058 250.71 917.108 248.91C918.158 247.11 919.583 245.7 921.383 244.68C923.183 243.66 925.238 243.15 927.548 243.15C929.888 243.15 931.958 243.66 933.758 244.68C935.588 245.7 937.013 247.11 938.033 248.91C939.083 250.71 939.608 252.795 939.608 255.165C939.608 257.505 939.083 259.59 938.033 261.42C937.013 263.22 935.588 264.645 933.758 265.695C931.928 266.715 929.858 267.225 927.548 267.225ZM927.548 264.39C929.258 264.39 930.773 264.015 932.093 263.265C933.413 262.485 934.448 261.405 935.198 260.025C935.978 258.615 936.368 256.995 936.368 255.165C936.368 253.305 935.978 251.685 935.198 250.305C934.448 248.925 933.413 247.86 932.093 247.11C930.773 246.33 929.273 245.94 927.593 245.94C925.913 245.94 924.413 246.33 923.093 247.11C921.773 247.86 920.723 248.925 919.943 250.305C919.163 251.685 918.773 253.305 918.773 255.165C918.773 256.995 919.163 258.615 919.943 260.025C920.723 261.405 921.773 262.485 923.093 263.265C924.413 264.015 925.898 264.39 927.548 264.39ZM946.131 267V233.61H949.326V267H946.131ZM967.981 267.225C965.971 267.225 964.216 266.85 962.716 266.1C961.216 265.35 960.046 264.225 959.206 262.725C958.396 261.225 957.991 259.35 957.991 257.1V243.375H961.186V256.74C961.186 259.26 961.801 261.165 963.031 262.455C964.291 263.715 966.046 264.345 968.296 264.345C969.946 264.345 971.371 264.015 972.571 263.355C973.801 262.665 974.731 261.675 975.361 260.385C976.021 259.095 976.351 257.55 976.351 255.75V243.375H979.546V267H976.486V260.52L976.981 261.69C976.231 263.43 975.061 264.795 973.471 265.785C971.911 266.745 970.081 267.225 967.981 267.225ZM995.92 267.225C993.7 267.225 991.99 266.625 990.79 265.425C989.59 264.225 988.99 262.53 988.99 260.34V238.155H992.185V260.16C992.185 261.54 992.53 262.605 993.22 263.355C993.94 264.105 994.96 264.48 996.28 264.48C997.69 264.48 998.86 264.075 999.79 263.265L1000.92 265.56C1000.29 266.13 999.52 266.55 998.62 266.82C997.75 267.09 996.85 267.225 995.92 267.225ZM984.76 246.03V243.375H999.385V246.03H984.76ZM1006.73 267V243.375H1009.93V267H1006.73ZM1008.35 238.155C1007.69 238.155 1007.14 237.93 1006.69 237.48C1006.24 237.03 1006.01 236.49 1006.01 235.86C1006.01 235.23 1006.24 234.705 1006.69 234.285C1007.14 233.835 1007.69 233.61 1008.35 233.61C1009.01 233.61 1009.57 233.82 1010.02 234.24C1010.47 234.66 1010.69 235.185 1010.69 235.815C1010.69 236.475 1010.47 237.03 1010.02 237.48C1009.6 237.93 1009.04 238.155 1008.35 238.155ZM1028.45 267.225C1026.17 267.225 1024.11 266.715 1022.28 265.695C1020.48 264.645 1019.06 263.22 1018.01 261.42C1016.96 259.59 1016.43 257.505 1016.43 255.165C1016.43 252.795 1016.96 250.71 1018.01 248.91C1019.06 247.11 1020.48 245.7 1022.28 244.68C1024.08 243.66 1026.14 243.15 1028.45 243.15C1030.79 243.15 1032.86 243.66 1034.66 244.68C1036.49 245.7 1037.91 247.11 1038.93 248.91C1039.98 250.71 1040.51 252.795 1040.51 255.165C1040.51 257.505 1039.98 259.59 1038.93 261.42C1037.91 263.22 1036.49 264.645 1034.66 265.695C1032.83 266.715 1030.76 267.225 1028.45 267.225ZM1028.45 264.39C1030.16 264.39 1031.67 264.015 1032.99 263.265C1034.31 262.485 1035.35 261.405 1036.1 260.025C1036.88 258.615 1037.27 256.995 1037.27 255.165C1037.27 253.305 1036.88 251.685 1036.1 250.305C1035.35 248.925 1034.31 247.86 1032.99 247.11C1031.67 246.33 1030.17 245.94 1028.49 245.94C1026.81 245.94 1025.31 246.33 1023.99 247.11C1022.67 247.86 1021.62 248.925 1020.84 250.305C1020.06 251.685 1019.67 253.305 1019.67 255.165C1019.67 256.995 1020.06 258.615 1020.84 260.025C1021.62 261.405 1022.67 262.485 1023.99 263.265C1025.31 264.015 1026.8 264.39 1028.45 264.39ZM1059.09 243.15C1061.01 243.15 1062.69 243.525 1064.13 244.275C1065.6 244.995 1066.74 246.105 1067.55 247.605C1068.39 249.105 1068.81 250.995 1068.81 253.275V267H1065.61V253.59C1065.61 251.1 1064.98 249.225 1063.72 247.965C1062.49 246.675 1060.75 246.03 1058.5 246.03C1056.82 246.03 1055.35 246.375 1054.09 247.065C1052.86 247.725 1051.9 248.7 1051.21 249.99C1050.55 251.25 1050.22 252.78 1050.22 254.58V267H1047.03V243.375H1050.09V249.855L1049.59 248.64C1050.34 246.93 1051.54 245.595 1053.19 244.635C1054.84 243.645 1056.81 243.15 1059.09 243.15ZM1083.78 267.225C1081.83 267.225 1079.99 266.955 1078.25 266.415C1076.51 265.845 1075.14 265.14 1074.15 264.3L1075.59 261.78C1076.55 262.5 1077.78 263.13 1079.28 263.67C1080.78 264.18 1082.36 264.435 1084.01 264.435C1086.26 264.435 1087.88 264.09 1088.87 263.4C1089.86 262.68 1090.35 261.735 1090.35 260.565C1090.35 259.695 1090.07 259.02 1089.5 258.54C1088.96 258.03 1088.24 257.655 1087.34 257.415C1086.44 257.145 1085.43 256.92 1084.32 256.74C1083.21 256.56 1082.1 256.35 1080.99 256.11C1079.91 255.87 1078.92 255.525 1078.02 255.075C1077.12 254.595 1076.39 253.95 1075.82 253.14C1075.28 252.33 1075.01 251.25 1075.01 249.9C1075.01 248.61 1075.37 247.455 1076.09 246.435C1076.81 245.415 1077.86 244.62 1079.24 244.05C1080.65 243.45 1082.36 243.15 1084.37 243.15C1085.9 243.15 1087.43 243.36 1088.96 243.78C1090.49 244.17 1091.75 244.695 1092.74 245.355L1091.34 247.92C1090.29 247.2 1089.17 246.69 1087.97 246.39C1086.77 246.06 1085.57 245.895 1084.37 245.895C1082.24 245.895 1080.66 246.27 1079.64 247.02C1078.65 247.74 1078.16 248.67 1078.16 249.81C1078.16 250.71 1078.43 251.415 1078.97 251.925C1079.54 252.435 1080.27 252.84 1081.17 253.14C1082.1 253.41 1083.11 253.635 1084.19 253.815C1085.3 253.995 1086.39 254.22 1087.47 254.49C1088.58 254.73 1089.59 255.075 1090.49 255.525C1091.42 255.945 1092.15 256.56 1092.69 257.37C1093.26 258.15 1093.55 259.185 1093.55 260.475C1093.55 261.855 1093.16 263.055 1092.38 264.075C1091.63 265.065 1090.52 265.845 1089.05 266.415C1087.61 266.955 1085.85 267.225 1083.78 267.225Z" fill="black"/>
<defs>
<linearGradient id="paint0_linear_102_2" x1="210.018" y1="75" x2="210" y2="241" gradientUnits="userSpaceOnUse">
<stop stop-color="#B96DC7"/>
<stop offset="1" stop-color="#D0317C"/>
</linearGradient>
<linearGradient id="paint1_linear_102_2" x1="210.018" y1="75" x2="210" y2="241" gradientUnits="userSpaceOnUse">
<stop stop-color="#B96DC7"/>
<stop offset="1" stop-color="#D0317C"/>
</linearGradient>
<linearGradient id="paint2_linear_102_2" x1="210.018" y1="75" x2="210" y2="241" gradientUnits="userSpaceOnUse">
<stop stop-color="#B96DC7"/>
<stop offset="1" stop-color="#D0317C"/>
</linearGradient>
<linearGradient id="paint3_linear_102_2" x1="210.018" y1="75" x2="210" y2="241" gradientUnits="userSpaceOnUse">
<stop stop-color="#B96DC7"/>
<stop offset="1" stop-color="#D0317C"/>
</linearGradient>
<linearGradient id="paint4_linear_102_2" x1="210.018" y1="75" x2="210" y2="241" gradientUnits="userSpaceOnUse">
<stop stop-color="#B96DC7"/>
<stop offset="1" stop-color="#D0317C"/>
</linearGradient>
<linearGradient id="paint5_linear_102_2" x1="210.018" y1="75" x2="210" y2="241" gradientUnits="userSpaceOnUse">
<stop stop-color="#B96DC7"/>
<stop offset="1" stop-color="#D0317C"/>
</linearGradient>
<linearGradient id="paint6_linear_102_2" x1="210.018" y1="75" x2="210" y2="241" gradientUnits="userSpaceOnUse">
<stop stop-color="#B96DC7"/>
<stop offset="1" stop-color="#D0317C"/>
</linearGradient>
<linearGradient id="paint7_linear_102_2" x1="210.018" y1="75" x2="210" y2="241" gradientUnits="userSpaceOnUse">
<stop stop-color="#B96DC7"/>
<stop offset="1" stop-color="#D0317C"/>
</linearGradient>
<linearGradient id="paint8_linear_102_2" x1="210.018" y1="75" x2="210" y2="241" gradientUnits="userSpaceOnUse">
<stop stop-color="#B96DC7"/>
<stop offset="1" stop-color="#D0317C"/>
</linearGradient>
</defs>
</svg>
