<svg width="1739" height="315" viewBox="0 0 1739 315" fill="none" xmlns="http://www.w3.org/2000/svg">
<circle cx="157.5" cy="157.5" r="157.5" fill="url(#paint0_linear_94_14)"/>
<path d="M122.652 110.832H123.238C130.562 90.5195 143.746 80.3633 162.789 80.3633C165.23 80.3633 167.232 80.5098 168.795 80.8027C170.357 80.998 171.432 81.1934 172.018 81.3887C173.482 81.877 174.215 83 174.215 84.7578V120.061C174.215 123.088 172.457 123.918 168.941 122.551C167.77 122.062 166.061 121.574 163.814 121.086C161.666 120.5 158.639 120.207 154.732 120.207C144.674 120.207 136.812 123.918 131.148 131.34C125.484 138.664 122.652 148.674 122.652 161.369V225.236C122.652 228.166 122.018 230.217 120.748 231.389C119.576 232.463 117.525 233 114.596 233H84.4199C81.4902 233 79.3906 232.463 78.1211 231.389C76.9492 230.217 76.3633 228.166 76.3633 225.236V102.482C76.3633 100.139 76.8516 98.332 77.8281 97.0625C79.8789 94.3281 82.3203 91.5449 85.1523 88.7129C88.082 85.8809 91.6465 82.8535 95.8457 79.6309C96.627 79.0449 97.4082 78.6543 98.1895 78.459C98.9707 78.2637 99.6543 78.166 100.24 78.166C101.607 78.166 102.975 78.6543 104.342 79.6309C112.447 85.9785 118.111 91.3984 121.334 95.8906C122.213 97.0625 122.652 98.4297 122.652 99.9922V110.832Z" fill="white"/>
<path d="M211.745 240.538L239.046 226.203V226.209C239.654 225.888 240.034 225.278 240.034 224.616V196.103L211.746 210.957L211.745 240.538Z" fill="white"/>
<path d="M180 224.617C180 225.279 180.38 225.889 180.988 226.21L208.289 240.545V210.957L180.001 196.103L180 224.617Z" fill="white"/>
<path d="M224.078 185.916L210.853 192.858C210.334 193.133 209.699 193.133 209.18 192.858L195.955 185.91L181.845 193.317L210.017 208.111L238.188 193.323L224.078 185.916Z" fill="white"/>
<path d="M211.745 159.063V188.652L239.046 174.31C239.654 173.995 240.034 173.386 240.034 172.724V144.21L226.297 151.421L211.745 159.063Z" fill="white"/>
<path d="M180.989 174.308L208.29 188.65V159.061L180.001 144.208V172.721C180.001 173.383 180.38 173.993 180.989 174.308Z" fill="white"/>
<path d="M209.18 140.964L195.948 134.016L181.838 141.429L210.017 156.224L238.195 141.429L224.085 134.016L210.853 140.964C210.597 141.095 210.307 141.167 210.017 141.174C209.727 141.174 209.436 141.102 209.18 140.964Z" fill="white"/>
<path d="M211.745 107.168V136.75L239.046 122.421C239.654 122.1 240.034 121.49 240.034 120.828V92.3152L211.745 107.168Z" fill="white"/>
<path d="M180.989 122.421L208.29 136.75V107.168L180.001 92.3149V120.828C180.001 121.49 180.38 122.1 180.989 122.421Z" fill="white"/>
<path d="M238.196 89.5352L210.944 75.2261C210.37 74.9246 209.666 74.9246 209.092 75.2261L181.84 89.5352L210.019 104.329L238.196 89.5352Z" fill="white"/>
<path d="M389.01 217V78.8182H443.527C453.963 78.8182 462.869 80.6849 470.246 84.4183C477.668 88.1068 483.313 93.3471 487.181 100.139C491.094 106.886 493.051 114.826 493.051 123.957C493.051 133.133 491.072 141.027 487.114 147.639C483.155 154.206 477.42 159.244 469.908 162.753C462.442 166.261 453.4 168.016 442.785 168.016H406.283V144.536H438.062C443.639 144.536 448.272 143.771 451.961 142.241C455.649 140.712 458.393 138.418 460.192 135.359C462.037 132.301 462.959 128.5 462.959 123.957C462.959 119.369 462.037 115.5 460.192 112.352C458.393 109.203 455.627 106.819 451.893 105.2C448.205 103.535 443.549 102.703 437.927 102.703H418.225V217H389.01ZM463.634 154.116L497.977 217H465.725L432.124 154.116H463.634ZM542.71 218.957C536.098 218.957 530.205 217.81 525.033 215.516C519.86 213.177 515.767 209.736 512.753 205.192C509.784 200.604 508.3 194.892 508.3 188.055C508.3 182.297 509.357 177.462 511.471 173.548C513.585 169.635 516.464 166.486 520.107 164.102C523.751 161.718 527.889 159.919 532.522 158.705C537.2 157.49 542.103 156.635 547.231 156.141C553.258 155.511 558.116 154.926 561.805 154.386C565.493 153.802 568.17 152.947 569.834 151.822C571.498 150.698 572.33 149.034 572.33 146.83V146.425C572.33 142.152 570.981 138.845 568.282 136.506C565.628 134.167 561.85 132.998 556.947 132.998C551.774 132.998 547.658 134.145 544.599 136.439C541.541 138.688 539.517 141.522 538.527 144.94L511.943 142.781C513.293 136.484 515.946 131.041 519.905 126.453C523.863 121.82 528.969 118.267 535.221 115.793C541.518 113.274 548.805 112.014 557.082 112.014C562.839 112.014 568.349 112.689 573.612 114.038C578.92 115.388 583.621 117.479 587.714 120.313C591.852 123.147 595.113 126.79 597.497 131.244C599.881 135.652 601.073 140.937 601.073 147.099V217H573.815V202.629H573.005C571.341 205.867 569.114 208.723 566.325 211.197C563.536 213.626 560.185 215.538 556.272 216.933C552.359 218.282 547.838 218.957 542.71 218.957ZM550.942 199.12C555.17 199.12 558.903 198.288 562.142 196.624C565.381 194.914 567.922 192.62 569.766 189.741C571.611 186.863 572.533 183.602 572.533 179.958V168.96C571.633 169.545 570.396 170.085 568.822 170.58C567.292 171.029 565.561 171.457 563.626 171.862C561.692 172.221 559.758 172.559 557.824 172.874C555.89 173.143 554.135 173.391 552.561 173.616C549.188 174.111 546.241 174.898 543.722 175.977C541.203 177.057 539.247 178.519 537.852 180.363C536.458 182.162 535.761 184.411 535.761 187.11C535.761 191.023 537.178 194.015 540.011 196.084C542.89 198.108 546.534 199.12 550.942 199.12ZM689.832 172.874V113.364H718.575V217H690.979V198.175H689.9C687.56 204.248 683.67 209.128 678.227 212.817C672.829 216.505 666.239 218.349 658.458 218.349C651.531 218.349 645.436 216.775 640.173 213.626C634.91 210.478 630.794 206.002 627.826 200.2C624.902 194.397 623.417 187.447 623.373 179.351V113.364H652.115V174.223C652.16 180.34 653.802 185.176 657.041 188.729C660.279 192.283 664.62 194.06 670.063 194.06C673.526 194.06 676.765 193.272 679.779 191.698C682.792 190.079 685.221 187.695 687.066 184.546C688.955 181.397 689.877 177.507 689.832 172.874ZM741.566 217V113.364H768.959V131.648H770.174C772.333 125.576 775.931 120.786 780.969 117.277C786.007 113.768 792.035 112.014 799.052 112.014C806.159 112.014 812.209 113.791 817.202 117.344C822.194 120.853 825.523 125.621 827.187 131.648H828.267C830.381 125.711 834.204 120.965 839.737 117.412C845.315 113.813 851.904 112.014 859.506 112.014C869.177 112.014 877.026 115.095 883.054 121.258C889.126 127.375 892.162 136.057 892.162 147.302V217H863.487V152.969C863.487 147.212 861.958 142.894 858.899 140.015C855.84 137.136 852.017 135.697 847.429 135.697C842.211 135.697 838.14 137.361 835.216 140.69C832.293 143.973 830.831 148.314 830.831 153.712V217H802.965V152.362C802.965 147.279 801.503 143.231 798.579 140.217C795.701 137.204 791.9 135.697 787.177 135.697C783.983 135.697 781.104 136.506 778.54 138.126C776.021 139.7 774.02 141.927 772.535 144.805C771.051 147.639 770.309 150.968 770.309 154.791V217H741.566ZM1074.96 78.8182V217H1049.73L989.608 130.029H988.596V217H959.381V78.8182H985.02L1044.67 165.722H1045.88V78.8182H1074.96ZM1145.79 219.024C1135.13 219.024 1125.95 216.865 1118.26 212.547C1110.61 208.184 1104.72 202.021 1100.58 194.06C1096.44 186.053 1094.37 176.585 1094.37 165.654C1094.37 154.994 1096.44 145.638 1100.58 137.586C1104.72 129.534 1110.55 123.259 1118.06 118.761C1125.61 114.263 1134.48 112.014 1144.64 112.014C1151.48 112.014 1157.84 113.116 1163.74 115.32C1169.67 117.479 1174.85 120.741 1179.25 125.104C1183.71 129.467 1187.17 134.955 1189.64 141.567C1192.12 148.134 1193.36 155.826 1193.36 164.642V172.536H1105.84V154.724H1166.3C1166.3 150.585 1165.4 146.92 1163.6 143.726C1161.8 140.532 1159.3 138.036 1156.11 136.237C1152.96 134.392 1149.3 133.47 1145.11 133.47C1140.75 133.47 1136.88 134.482 1133.51 136.506C1130.18 138.486 1127.57 141.162 1125.68 144.536C1123.79 147.864 1122.83 151.575 1122.78 155.668V172.604C1122.78 177.732 1123.72 182.162 1125.61 185.896C1127.55 189.629 1130.27 192.508 1133.78 194.532C1137.29 196.556 1141.45 197.568 1146.26 197.568C1149.45 197.568 1152.38 197.118 1155.03 196.219C1157.69 195.319 1159.96 193.97 1161.85 192.17C1163.74 190.371 1165.18 188.167 1166.16 185.558L1192.75 187.312C1191.4 193.7 1188.63 199.277 1184.45 204.045C1180.31 208.768 1174.96 212.457 1168.39 215.111C1161.87 217.72 1154.33 219.024 1145.79 219.024ZM1267.24 113.364V134.955H1204.83V113.364H1267.24ZM1218.99 88.5341H1247.74V185.153C1247.74 187.807 1248.14 189.876 1248.95 191.361C1249.76 192.8 1250.89 193.812 1252.33 194.397C1253.81 194.982 1255.52 195.274 1257.45 195.274C1258.8 195.274 1260.15 195.162 1261.5 194.937C1262.85 194.667 1263.89 194.464 1264.61 194.33L1269.13 215.718C1267.69 216.168 1265.66 216.685 1263.05 217.27C1260.44 217.9 1257.27 218.282 1253.54 218.417C1246.61 218.687 1240.54 217.765 1235.32 215.651C1230.15 213.536 1226.12 210.253 1223.25 205.8C1220.37 201.347 1218.95 195.724 1218.99 188.932V88.5341ZM1306.4 217L1278.2 113.364H1307.28L1323.34 182.994H1324.28L1341.02 113.364H1369.56L1386.56 182.589H1387.44L1403.23 113.364H1432.24L1404.1 217H1373.67L1355.86 151.822H1354.58L1336.77 217H1306.4ZM1491.8 219.024C1481.32 219.024 1472.26 216.798 1464.61 212.344C1457.01 207.846 1451.14 201.594 1447 193.587C1442.86 185.536 1440.79 176.202 1440.79 165.587C1440.79 154.881 1442.86 145.525 1447 137.518C1451.14 129.467 1457.01 123.214 1464.61 118.761C1472.26 114.263 1481.32 112.014 1491.8 112.014C1502.28 112.014 1511.32 114.263 1518.92 118.761C1526.57 123.214 1532.46 129.467 1536.6 137.518C1540.74 145.525 1542.81 154.881 1542.81 165.587C1542.81 176.202 1540.74 185.536 1536.6 193.587C1532.46 201.594 1526.57 207.846 1518.92 212.344C1511.32 216.798 1502.28 219.024 1491.8 219.024ZM1491.93 196.759C1496.7 196.759 1500.68 195.409 1503.88 192.71C1507.07 189.966 1509.48 186.233 1511.1 181.51C1512.76 176.787 1513.59 171.412 1513.59 165.384C1513.59 159.357 1512.76 153.982 1511.1 149.259C1509.48 144.536 1507.07 140.802 1503.88 138.058C1500.68 135.314 1496.7 133.942 1491.93 133.942C1487.12 133.942 1483.07 135.314 1479.79 138.058C1476.55 140.802 1474.1 144.536 1472.44 149.259C1470.82 153.982 1470.01 159.357 1470.01 165.384C1470.01 171.412 1470.82 176.787 1472.44 181.51C1474.1 186.233 1476.55 189.966 1479.79 192.71C1483.07 195.409 1487.12 196.759 1491.93 196.759ZM1561.5 217V113.364H1589.36V131.446H1590.44C1592.33 125.014 1595.5 120.156 1599.96 116.872C1604.41 113.544 1609.54 111.879 1615.34 111.879C1616.78 111.879 1618.33 111.969 1620 112.149C1621.66 112.329 1623.12 112.576 1624.38 112.891V138.396C1623.03 137.991 1621.16 137.631 1618.78 137.316C1616.4 137.001 1614.22 136.844 1612.24 136.844C1608.01 136.844 1604.23 137.766 1600.9 139.61C1597.62 141.409 1595.01 143.928 1593.07 147.167C1591.19 150.406 1590.24 154.139 1590.24 158.367V217H1561.5ZM1665.29 187.178L1665.35 152.7H1669.54L1702.73 113.364H1735.73L1691.13 165.452H1684.31L1665.29 187.178ZM1639.24 217V78.8182H1667.98V217H1639.24ZM1704.01 217L1673.52 171.862L1692.68 151.553L1737.68 217H1704.01Z" fill="black"/>
<defs>
<linearGradient id="paint0_linear_94_14" x1="315" y1="158" x2="-1.15701e-06" y2="158" gradientUnits="userSpaceOnUse">
<stop stop-color="#2563EB"/>
<stop offset="1" stop-color="#1A365D"/>
</linearGradient>
</defs>
</svg>
