<svg width="1740" height="315" viewBox="0 0 1740 315" fill="none" xmlns="http://www.w3.org/2000/svg">
<circle cx="157.5" cy="157.5" r="157.5" fill="#010101"/>
<path d="M122.652 110.832H123.238C130.562 90.5195 143.746 80.3633 162.789 80.3633C165.23 80.3633 167.232 80.5098 168.795 80.8027C170.357 80.998 171.432 81.1934 172.018 81.3887C173.482 81.877 174.215 83 174.215 84.7578V120.061C174.215 123.088 172.457 123.918 168.941 122.551C167.77 122.062 166.061 121.574 163.814 121.086C161.666 120.5 158.639 120.207 154.732 120.207C144.674 120.207 136.812 123.918 131.148 131.34C125.484 138.664 122.652 148.674 122.652 161.369V225.236C122.652 228.166 122.018 230.217 120.748 231.389C119.576 232.463 117.525 233 114.596 233H84.4199C81.4902 233 79.3906 232.463 78.1211 231.389C76.9492 230.217 76.3633 228.166 76.3633 225.236V102.482C76.3633 100.139 76.8516 98.332 77.8281 97.0625C79.8789 94.3281 82.3203 91.5449 85.1523 88.7129C88.082 85.8809 91.6465 82.8535 95.8457 79.6309C96.627 79.0449 97.4082 78.6543 98.1895 78.459C98.9707 78.2637 99.6543 78.166 100.24 78.166C101.607 78.166 102.975 78.6543 104.342 79.6309C112.447 85.9785 118.111 91.3984 121.334 95.8906C122.213 97.0625 122.652 98.4297 122.652 99.9922V110.832Z" fill="white"/>
<path d="M211.744 240.538L239.046 226.203V226.209C239.654 225.888 240.034 225.279 240.034 224.616V196.103L211.745 210.957L211.744 240.538Z" fill="url(#paint0_linear_96_62)"/>
<path d="M180 224.617C180 225.279 180.38 225.889 180.988 226.21L208.289 240.545V210.957L180.001 196.103L180 224.617Z" fill="url(#paint1_linear_96_62)"/>
<path d="M224.078 185.917L210.853 192.858C210.334 193.133 209.699 193.133 209.18 192.858L195.955 185.91L181.845 193.317L210.017 208.111L238.188 193.324L224.078 185.917Z" fill="url(#paint2_linear_96_62)"/>
<path d="M211.744 159.063V188.652L239.046 174.31C239.654 173.995 240.034 173.386 240.034 172.724V144.21L211.744 159.063Z" fill="url(#paint3_linear_96_62)"/>
<path d="M180.989 174.308L208.29 188.65V159.061L180.001 144.208V172.721C180.001 173.383 180.38 173.993 180.989 174.308Z" fill="url(#paint4_linear_96_62)"/>
<path d="M209.18 140.964L195.948 134.016L181.838 141.429L210.017 156.224L238.195 141.429L224.085 134.016L210.853 140.964C210.597 141.095 210.307 141.167 210.017 141.174C209.727 141.174 209.436 141.101 209.18 140.964Z" fill="url(#paint5_linear_96_62)"/>
<path d="M211.744 107.168V136.75L239.046 122.421C239.654 122.1 240.034 121.49 240.034 120.828V92.3153L211.744 107.168Z" fill="url(#paint6_linear_96_62)"/>
<path d="M180.989 122.421L208.29 136.75V107.168L180.001 92.315V120.828C180.001 121.49 180.38 122.1 180.989 122.421Z" fill="url(#paint7_linear_96_62)"/>
<path d="M238.196 89.5352L210.944 75.2261C210.37 74.9246 209.666 74.9246 209.092 75.2261L181.84 89.5352L210.019 104.329L238.196 89.5352Z" fill="url(#paint8_linear_96_62)"/>
<path d="M390.01 225V86.8182H444.527C454.963 86.8182 463.869 88.6849 471.246 92.4183C478.668 96.1068 484.313 101.347 488.181 108.139C492.094 114.886 494.051 122.826 494.051 131.957C494.051 141.133 492.072 149.027 488.114 155.639C484.155 162.206 478.42 167.244 470.908 170.753C463.442 174.261 454.4 176.016 443.785 176.016H407.283V152.536H439.062C444.639 152.536 449.272 151.771 452.961 150.241C456.649 148.712 459.393 146.418 461.192 143.359C463.037 140.301 463.959 136.5 463.959 131.957C463.959 127.369 463.037 123.5 461.192 120.352C459.393 117.203 456.627 114.819 452.893 113.2C449.205 111.535 444.549 110.703 438.927 110.703H419.225V225H390.01ZM464.634 162.116L498.977 225H466.725L433.124 162.116H464.634ZM543.71 226.957C537.098 226.957 531.205 225.81 526.033 223.516C520.86 221.177 516.767 217.736 513.753 213.192C510.784 208.604 509.3 202.892 509.3 196.055C509.3 190.297 510.357 185.462 512.471 181.548C514.585 177.635 517.464 174.486 521.107 172.102C524.751 169.718 528.889 167.919 533.522 166.705C538.2 165.49 543.103 164.635 548.231 164.141C554.258 163.511 559.116 162.926 562.805 162.386C566.493 161.802 569.17 160.947 570.834 159.822C572.498 158.698 573.33 157.034 573.33 154.83V154.425C573.33 150.152 571.981 146.845 569.282 144.506C566.628 142.167 562.85 140.998 557.947 140.998C552.774 140.998 548.658 142.145 545.599 144.439C542.541 146.688 540.517 149.522 539.527 152.94L512.943 150.781C514.293 144.484 516.946 139.041 520.905 134.453C524.863 129.82 529.969 126.267 536.221 123.793C542.518 121.274 549.805 120.014 558.082 120.014C563.839 120.014 569.349 120.689 574.612 122.038C579.92 123.388 584.621 125.479 588.714 128.313C592.852 131.147 596.113 134.79 598.497 139.244C600.881 143.652 602.073 148.937 602.073 155.099V225H574.815V210.629H574.005C572.341 213.867 570.114 216.723 567.325 219.197C564.536 221.626 561.185 223.538 557.272 224.933C553.359 226.282 548.838 226.957 543.71 226.957ZM551.942 207.12C556.17 207.12 559.903 206.288 563.142 204.624C566.381 202.914 568.922 200.62 570.766 197.741C572.611 194.863 573.533 191.602 573.533 187.958V176.96C572.633 177.545 571.396 178.085 569.822 178.58C568.292 179.029 566.561 179.457 564.626 179.862C562.692 180.221 560.758 180.559 558.824 180.874C556.89 181.143 555.135 181.391 553.561 181.616C550.188 182.111 547.241 182.898 544.722 183.977C542.203 185.057 540.247 186.519 538.852 188.363C537.458 190.162 536.761 192.411 536.761 195.11C536.761 199.023 538.178 202.015 541.011 204.084C543.89 206.108 547.534 207.12 551.942 207.12ZM690.832 180.874V121.364H719.575V225H691.979V206.175H690.9C688.56 212.248 684.67 217.128 679.227 220.817C673.829 224.505 667.239 226.349 659.458 226.349C652.531 226.349 646.436 224.775 641.173 221.626C635.91 218.478 631.794 214.002 628.826 208.2C625.902 202.397 624.417 195.447 624.373 187.351V121.364H653.115V182.223C653.16 188.34 654.802 193.176 658.041 196.729C661.279 200.283 665.62 202.06 671.063 202.06C674.526 202.06 677.765 201.272 680.779 199.698C683.792 198.079 686.221 195.695 688.066 192.546C689.955 189.397 690.877 185.507 690.832 180.874ZM742.566 225V121.364H769.959V139.648H771.174C773.333 133.576 776.931 128.786 781.969 125.277C787.007 121.768 793.035 120.014 800.052 120.014C807.159 120.014 813.209 121.791 818.202 125.344C823.194 128.853 826.523 133.621 828.187 139.648H829.267C831.381 133.711 835.204 128.965 840.737 125.412C846.315 121.813 852.904 120.014 860.506 120.014C870.177 120.014 878.026 123.095 884.054 129.258C890.126 135.375 893.162 144.057 893.162 155.302V225H864.487V160.969C864.487 155.212 862.958 150.894 859.899 148.015C856.84 145.136 853.017 143.697 848.429 143.697C843.211 143.697 839.14 145.361 836.216 148.69C833.293 151.973 831.831 156.314 831.831 161.712V225H803.965V160.362C803.965 155.279 802.503 151.231 799.579 148.217C796.701 145.204 792.9 143.697 788.177 143.697C784.983 143.697 782.104 144.506 779.54 146.126C777.021 147.7 775.02 149.927 773.535 152.805C772.051 155.639 771.309 158.968 771.309 162.791V225H742.566ZM1075.96 86.8182V225H1050.73L990.608 138.029H989.596V225H960.381V86.8182H986.02L1045.67 173.722H1046.88V86.8182H1075.96ZM1146.79 227.024C1136.13 227.024 1126.95 224.865 1119.26 220.547C1111.61 216.184 1105.72 210.021 1101.58 202.06C1097.44 194.053 1095.37 184.585 1095.37 173.654C1095.37 162.994 1097.44 153.638 1101.58 145.586C1105.72 137.534 1111.55 131.259 1119.06 126.761C1126.61 122.263 1135.48 120.014 1145.64 120.014C1152.48 120.014 1158.84 121.116 1164.74 123.32C1170.67 125.479 1175.85 128.741 1180.25 133.104C1184.71 137.467 1188.17 142.955 1190.64 149.567C1193.12 156.134 1194.36 163.826 1194.36 172.642V180.536H1106.84V162.724H1167.3C1167.3 158.585 1166.4 154.92 1164.6 151.726C1162.8 148.532 1160.3 146.036 1157.11 144.237C1153.96 142.392 1150.3 141.47 1146.11 141.47C1141.75 141.47 1137.88 142.482 1134.51 144.506C1131.18 146.486 1128.57 149.162 1126.68 152.536C1124.79 155.864 1123.83 159.575 1123.78 163.668V180.604C1123.78 185.732 1124.72 190.162 1126.61 193.896C1128.55 197.629 1131.27 200.508 1134.78 202.532C1138.29 204.556 1142.45 205.568 1147.26 205.568C1150.45 205.568 1153.38 205.118 1156.03 204.219C1158.69 203.319 1160.96 201.97 1162.85 200.17C1164.74 198.371 1166.18 196.167 1167.16 193.558L1193.75 195.312C1192.4 201.7 1189.63 207.277 1185.45 212.045C1181.31 216.768 1175.96 220.457 1169.39 223.111C1162.87 225.72 1155.33 227.024 1146.79 227.024ZM1268.24 121.364V142.955H1205.83V121.364H1268.24ZM1219.99 96.5341H1248.74V193.153C1248.74 195.807 1249.14 197.876 1249.95 199.361C1250.76 200.8 1251.89 201.812 1253.33 202.397C1254.81 202.982 1256.52 203.274 1258.45 203.274C1259.8 203.274 1261.15 203.162 1262.5 202.937C1263.85 202.667 1264.89 202.464 1265.61 202.33L1270.13 223.718C1268.69 224.168 1266.66 224.685 1264.05 225.27C1261.44 225.9 1258.27 226.282 1254.54 226.417C1247.61 226.687 1241.54 225.765 1236.32 223.651C1231.15 221.536 1227.12 218.253 1224.25 213.8C1221.37 209.347 1219.95 203.724 1219.99 196.932V96.5341ZM1307.4 225L1279.2 121.364H1308.28L1324.34 190.994H1325.28L1342.02 121.364H1370.56L1387.56 190.589H1388.44L1404.23 121.364H1433.24L1405.1 225H1374.67L1356.86 159.822H1355.58L1337.77 225H1307.4ZM1492.8 227.024C1482.32 227.024 1473.26 224.798 1465.61 220.344C1458.01 215.846 1452.14 209.594 1448 201.587C1443.86 193.536 1441.79 184.202 1441.79 173.587C1441.79 162.881 1443.86 153.525 1448 145.518C1452.14 137.467 1458.01 131.214 1465.61 126.761C1473.26 122.263 1482.32 120.014 1492.8 120.014C1503.28 120.014 1512.32 122.263 1519.92 126.761C1527.57 131.214 1533.46 137.467 1537.6 145.518C1541.74 153.525 1543.81 162.881 1543.81 173.587C1543.81 184.202 1541.74 193.536 1537.6 201.587C1533.46 209.594 1527.57 215.846 1519.92 220.344C1512.32 224.798 1503.28 227.024 1492.8 227.024ZM1492.93 204.759C1497.7 204.759 1501.68 203.409 1504.88 200.71C1508.07 197.966 1510.48 194.233 1512.1 189.51C1513.76 184.787 1514.59 179.412 1514.59 173.384C1514.59 167.357 1513.76 161.982 1512.1 157.259C1510.48 152.536 1508.07 148.802 1504.88 146.058C1501.68 143.314 1497.7 141.942 1492.93 141.942C1488.12 141.942 1484.07 143.314 1480.79 146.058C1477.55 148.802 1475.1 152.536 1473.44 157.259C1471.82 161.982 1471.01 167.357 1471.01 173.384C1471.01 179.412 1471.82 184.787 1473.44 189.51C1475.1 194.233 1477.55 197.966 1480.79 200.71C1484.07 203.409 1488.12 204.759 1492.93 204.759ZM1562.5 225V121.364H1590.36V139.446H1591.44C1593.33 133.014 1596.5 128.156 1600.96 124.872C1605.41 121.544 1610.54 119.879 1616.34 119.879C1617.78 119.879 1619.33 119.969 1621 120.149C1622.66 120.329 1624.12 120.576 1625.38 120.891V146.396C1624.03 145.991 1622.16 145.631 1619.78 145.316C1617.4 145.001 1615.22 144.844 1613.24 144.844C1609.01 144.844 1605.23 145.766 1601.9 147.61C1598.62 149.409 1596.01 151.928 1594.07 155.167C1592.19 158.406 1591.24 162.139 1591.24 166.367V225H1562.5ZM1666.29 195.178L1666.35 160.7H1670.54L1703.73 121.364H1736.73L1692.13 173.452H1685.31L1666.29 195.178ZM1640.24 225V86.8182H1668.98V225H1640.24ZM1705.01 225L1674.52 179.862L1693.68 159.553L1738.68 225H1705.01Z" fill="black"/>
<defs>
<linearGradient id="paint0_linear_96_62" x1="210.018" y1="75" x2="210" y2="241" gradientUnits="userSpaceOnUse">
<stop stop-color="#B96DC7"/>
<stop offset="1" stop-color="#D0317C"/>
</linearGradient>
<linearGradient id="paint1_linear_96_62" x1="210.018" y1="75" x2="210" y2="241" gradientUnits="userSpaceOnUse">
<stop stop-color="#B96DC7"/>
<stop offset="1" stop-color="#D0317C"/>
</linearGradient>
<linearGradient id="paint2_linear_96_62" x1="210.018" y1="75" x2="210" y2="241" gradientUnits="userSpaceOnUse">
<stop stop-color="#B96DC7"/>
<stop offset="1" stop-color="#D0317C"/>
</linearGradient>
<linearGradient id="paint3_linear_96_62" x1="210.018" y1="75" x2="210" y2="241" gradientUnits="userSpaceOnUse">
<stop stop-color="#B96DC7"/>
<stop offset="1" stop-color="#D0317C"/>
</linearGradient>
<linearGradient id="paint4_linear_96_62" x1="210.018" y1="75" x2="210" y2="241" gradientUnits="userSpaceOnUse">
<stop stop-color="#B96DC7"/>
<stop offset="1" stop-color="#D0317C"/>
</linearGradient>
<linearGradient id="paint5_linear_96_62" x1="210.018" y1="75" x2="210" y2="241" gradientUnits="userSpaceOnUse">
<stop stop-color="#B96DC7"/>
<stop offset="1" stop-color="#D0317C"/>
</linearGradient>
<linearGradient id="paint6_linear_96_62" x1="210.018" y1="75" x2="210" y2="241" gradientUnits="userSpaceOnUse">
<stop stop-color="#B96DC7"/>
<stop offset="1" stop-color="#D0317C"/>
</linearGradient>
<linearGradient id="paint7_linear_96_62" x1="210.018" y1="75" x2="210" y2="241" gradientUnits="userSpaceOnUse">
<stop stop-color="#B96DC7"/>
<stop offset="1" stop-color="#D0317C"/>
</linearGradient>
<linearGradient id="paint8_linear_96_62" x1="210.018" y1="75" x2="210" y2="241" gradientUnits="userSpaceOnUse">
<stop stop-color="#B96DC7"/>
<stop offset="1" stop-color="#D0317C"/>
</linearGradient>
</defs>
</svg>
